<?xml version="1.0" encoding="UTF-8" standalone="no"?>
<svg
   xmlns:dc="http://purl.org/dc/elements/1.1/"
   xmlns:cc="http://creativecommons.org/ns#"
   xmlns:rdf="http://www.w3.org/1999/02/22-rdf-syntax-ns#"
   xmlns:svg="http://www.w3.org/2000/svg"
   xmlns="http://www.w3.org/2000/svg"
   version="1.1"
   id="Capa_1"
   x="0px"
   y="0px"
   viewBox="0 0 299.99999 299.99999"
   xml:space="preserve"
   width="300"
   height="300"><metadata
   id="metadata43"><rdf:RDF><cc:Work
       rdf:about=""><dc:format>image/svg+xml</dc:format><dc:type
         rdf:resource="http://purl.org/dc/dcmitype/StillImage" /><dc:title></dc:title></cc:Work></rdf:RDF></metadata><defs
   id="defs41" />
<g
   id="g6"
   transform="translate(-0.11235807,73.080487)">
	
	<g
   id="g848"
   transform="translate(0,22)"><path
     style="fill:#ffffff"
     id="path2"
     d="M 247.098,90.165 C 243.33,67.725 227.459,64.219 220.097,63.824 217.826,63.702 215.71,62.55 214.47,60.642 209.103,52.39 201.889,50.21 195.764,50.21 c -2.743,0 -5.268,0.438 -7.311,0.962 -0.624,0.161 -1.257,0.239 -1.884,0.239 -2.277,0 -4.469,-1.036 -5.851,-2.929 -5.288,-7.247 -12.169,-9.209 -18.069,-9.209 -1.464,0 -2.867,0.121 -4.171,0.312 -0.366,0.054 -0.773,0.08 -1.13,0.08 -3.963,0 -7.348,-3.176 -7.348,-7.27 v -42.838 c 0,-10.982 -8.264,-16.473 -16.5,-16.473 -8.236,0 -16.5,5.491 -16.5,16.473 V 94.912 c 0,8.237 -6.688,14.193 -14.111,14.193 -2.198,0 -4.418,-0.521 -6.574,-1.661 C 86.26,102.13 75.456,97.471 64.206,93.067 61.693,92.084 59.274,91.639 56.993,91.639 41.563,91.637 32.88,111.97 49.949,122.955 c 19.591,12.608 44.432,19.509 54.092,33.769 5.972,8.815 18.531,34.141 23.399,44.024 1.226,2.487 3.756,4.224 6.528,4.224 h 76.996 c 3.649,0 6.735,-2.869 7.216,-6.486 l 4.059,-30.628 c 0.145,-1.086 0.538,-2.171 1.139,-3.087 21.224,-32.343 27.29,-53.339 23.72,-74.606 z" /><path
     style="fill:#ffffff"
     id="path4"
     d="m 58.333,54.973 c 0,-3.313 -2.687,-6 -6,-6 H 31.434 L 85,-5.039 v 20.9 c 0,3.313 2.687,6 6,6 3.313,0 6,-2.687 6,-6 v -36 c 0,-3.314 -2.354,-5.889 -5.667,-5.889 h -35 c -3.313,0 -6,2.686 -6,6 0,3.314 2.687,6 6,6 H 77.461 L 22,40.992 v -21.13 c 0,-3.313 -2.686,-6 -6,-6 -3.314,0 -6,2.687 -6,6 v 35 c 0,3.313 3.02,6.111 6.333,6.111 h 36 c 3.313,0 6,-2.687 6,-6 z" /></g>
</g>
<g
   id="g8"
   transform="translate(0,61.942993)">
</g>
<g
   id="g10"
   transform="translate(0,61.942993)">
</g>
<g
   id="g12"
   transform="translate(0,61.942993)">
</g>
<g
   id="g14"
   transform="translate(0,61.942993)">
</g>
<g
   id="g16"
   transform="translate(0,61.942993)">
</g>
<g
   id="g18"
   transform="translate(0,61.942993)">
</g>
<g
   id="g20"
   transform="translate(0,61.942993)">
</g>
<g
   id="g22"
   transform="translate(0,61.942993)">
</g>
<g
   id="g24"
   transform="translate(0,61.942993)">
</g>
<g
   id="g26"
   transform="translate(0,61.942993)">
</g>
<g
   id="g28"
   transform="translate(0,61.942993)">
</g>
<g
   id="g30"
   transform="translate(0,61.942993)">
</g>
<g
   id="g32"
   transform="translate(0,61.942993)">
</g>
<g
   id="g34"
   transform="translate(0,61.942993)">
</g>
<g
   id="g36"
   transform="translate(0,61.942993)">
</g>
</svg>